<svg width="46" height="78" viewBox="0 0 46 78" fill="none" xmlns="http://www.w3.org/2000/svg">
<path d="M22.7603 75C11.7265 75 2.8335 65.8333 2.8335 54.5833V23.3333C2.8335 12.0833 11.8088 2.91667 22.7603 2.91667C33.7118 2.91667 42.6871 12.0833 42.6871 23.3333V54.5833C42.6871 65.8333 33.7942 75 22.7603 75ZM22.7603 3.83334C12.2205 3.83334 3.65692 12.5833 3.65692 23.3333V54.5833C3.65692 65.3333 12.2205 74.0833 22.7603 74.0833C33.3001 74.0833 41.8637 65.3333 41.8637 54.5833V23.3333C41.8637 12.5833 33.3001 3.83334 22.7603 3.83334Z" fill="#333333"/>
<path d="M22.7605 78C10.3268 78 0.19873 67.75 0.19873 55.25V22.8333C0.19873 10.25 10.3268 0 22.7605 0C35.1942 0 45.2399 10.25 45.2399 22.8333V55.25C45.2399 67.75 35.1118 78 22.7605 78ZM22.7605 0.916666C10.8209 0.916666 1.10449 10.75 1.10449 22.8333V55.25C1.10449 67.3333 10.8209 77.1667 22.7605 77.1667C34.7001 77.1667 44.4165 67.3333 44.4165 55.25V22.8333C44.4165 10.75 34.7001 0.916666 22.7605 0.916666Z" fill="#333333"/>
<path d="M14.3615 33.25H14.4438C14.6908 33.1667 14.8555 32.9167 15.0202 32.3333C15.1849 31.8333 15.1849 31.1667 15.1849 30.3333V18.5C15.1849 17.6667 15.1025 17 15.0202 16.5C14.8555 16 14.6908 15.6667 14.4438 15.5833H14.3615V15.5H18.2315V15.5833H18.1492C17.9022 15.6667 17.7375 15.9167 17.5728 16.4167C17.4081 16.9167 17.4081 17.5833 17.3258 18.4167L17.2434 22.5833L28.936 25.5V18.4167C28.936 17.5833 28.8537 16.9167 28.7713 16.4167C28.6067 15.9167 28.442 15.5833 28.1949 15.5H28.1126V15.4167H31.9827V15.5H31.9003C31.6533 15.5833 31.4886 15.8333 31.3239 16.4167C31.1593 17 31.0769 17.6667 31.0769 18.5V30.3333C31.0769 31.1667 31.1593 31.8333 31.2416 32.3333C31.4063 32.8333 31.571 33.1667 31.818 33.25H31.9003V33.3333H28.0303V33.25H28.1126C28.3596 33.1667 28.5243 32.9167 28.689 32.3333C28.8537 31.8333 28.8537 31.1667 28.8537 30.3333V26.0833L17.1611 23.1667L17.2434 30.3333C17.2434 31.1667 17.3258 31.8333 17.4081 32.3333C17.4905 32.8333 17.7375 33.1667 17.9845 33.25H18.0669V33.3333H14.1968L14.3615 33.25Z" fill="#333333"/>
<path d="M18.3136 64.5833C16.9961 64.1667 15.9257 63.5833 15.1846 62.75C14.6082 62.0833 14.2788 61.5 14.2788 61.0833C14.2788 60.8333 14.3612 60.5833 14.6082 60.3333C14.7729 60.1667 15.1022 60.0833 15.4316 60.0833C15.761 60.0833 16.0903 60.1667 16.255 60.4167C16.4197 60.5833 16.5844 60.8333 16.6667 61.1667C16.7491 61.5 16.7491 61.75 16.8314 61.8333C17.1608 62.8333 17.9019 63.5833 19.0547 64C20.2074 64.4167 21.5249 64.6667 22.9247 64.6667C24.5716 64.6667 25.9714 64.3333 27.0418 63.6667C28.03 63 28.6063 62.1667 28.6063 61.0833C28.6063 60.5 28.277 59.9167 27.7006 59.3333C27.1242 58.75 26.3008 58.1667 25.2303 57.6667C24.1599 57.1667 23.0071 56.75 21.7719 56.5C19.7134 56 17.9842 55.3333 16.6667 54.5833C15.3493 53.75 14.6905 52.8333 14.6905 51.75C14.6905 50.6667 15.0199 49.75 15.6786 48.9167C16.3374 48.0833 17.2431 47.5 18.3959 47C19.5487 46.5 20.8662 46.3333 22.3483 46.3333C23.8305 46.3333 25.0656 46.5833 26.3008 47C27.5359 47.4167 28.4417 48 29.0181 48.75C29.5945 49.4167 29.8415 49.9167 29.8415 50.4167C29.8415 50.6667 29.7591 50.9167 29.5121 51.0833C29.3474 51.25 29.0181 51.3333 28.771 51.3333C28.4417 51.3333 28.1946 51.25 28.03 51.0833C27.9476 51 27.8653 50.8333 27.7829 50.6667C27.7006 50.5 27.7006 50.3333 27.7006 50.3333C27.6182 49.9167 27.5359 49.6667 27.4536 49.4167C27.0418 48.6667 26.3831 48.0833 25.4773 47.6667C24.4892 47.25 23.4188 47 22.266 47C20.6192 47 19.2193 47.3333 18.1489 48.0833C17.0784 48.75 16.5844 49.75 16.5844 51C16.5844 51.5833 16.8314 52.1667 17.3255 52.5C17.8195 52.8333 18.4783 53.25 19.2193 53.5C19.9604 53.75 21.0309 54.1667 22.513 54.5L23.3364 54.75C25.4773 55.25 27.2065 56 28.524 57C29.8415 58 30.5826 59.0833 30.5826 60.25C30.5826 61.25 30.2532 62.1667 29.5945 62.9167C28.9357 63.6667 28.03 64.25 26.8772 64.6667C25.7244 65.0833 24.4069 65.3333 22.8424 65.3333C21.2779 65.25 19.7134 65 18.3136 64.5833Z" fill="#333333"/>
<path d="M13.7852 39.5H32.4768V40.3333H13.7852V39.5Z" fill="#333333"/>
</svg>
