<?xml version="1.0" encoding="UTF-8"?>
<svg id="Layer_1" data-name="Layer 1" xmlns="http://www.w3.org/2000/svg" xmlns:xlink="http://www.w3.org/1999/xlink" viewBox="0 0 221.59 223.07">
  <defs>
    <style>
      .cls-1 {
        fill: url(#linear-gradient-5);
      }

      .cls-2 {
        fill: url(#linear-gradient-4);
      }

      .cls-3 {
        fill: url(#linear-gradient-3);
      }

      .cls-4 {
        fill: url(#linear-gradient-2);
      }

      .cls-5 {
        fill: url(#linear-gradient);
      }
    </style>
    <linearGradient id="linear-gradient" x1="86.45" y1="68.7" x2="137.06" y2="68.7" gradientUnits="userSpaceOnUse">
      <stop offset="0" stop-color="#ab8158"/>
      <stop offset="1" stop-color="#e4c095"/>
    </linearGradient>
    <linearGradient id="linear-gradient-2" y1="157.39" x2="133.41" y2="157.39" xlink:href="#linear-gradient"/>
    <linearGradient id="linear-gradient-3" x1="84.95" y1="112.68" x2="138.56" y2="112.68" xlink:href="#linear-gradient"/>
    <linearGradient id="linear-gradient-4" x1="11.31" y1="110.2" x2="208.57" y2="110.2" xlink:href="#linear-gradient"/>
    <linearGradient id="linear-gradient-5" x1="2" y1="110.07" x2="218.14" y2="110.07" xlink:href="#linear-gradient"/>
  </defs>
  <g>
    <path class="cls-5" d="M86.45,93.74l.33-.08c.66-.17,1.19-1,1.58-2.51.39-1.51.58-3.4.58-5.69v-33.53c0-2.28-.2-4.18-.58-5.69-.39-1.51-.92-2.34-1.58-2.51l-.33-.08v-.25h11.09v.25l-.33.08c-.66.17-1.18.99-1.54,2.47-.36,1.48-.57,3.39-.63,5.73l-.17,11.79,33.52,8.19.08-19.98c0-2.28-.2-4.18-.58-5.69-.39-1.51-.92-2.34-1.58-2.51l-.33-.08v-.25h11.09v.25l-.33.08c-.67.17-1.2,1-1.58,2.51-.39,1.51-.59,3.4-.59,5.69v33.53c0,2.29.2,4.18.59,5.69.39,1.51.92,2.34,1.58,2.51l.33.08v.25h-11.09v-.25l.33-.08c.67-.17,1.19-1,1.58-2.51.39-1.51.58-3.4.58-5.69l-.08-12.04-33.52-8.19.17,20.23c0,2.29.19,4.18.58,5.69.39,1.51.92,2.34,1.58,2.51l.33.08v.25h-11.09v-.25Z"/>
    <path class="cls-4" d="M97.94,182.61c-3.88-1.18-6.85-2.92-8.9-5.22-1.73-1.96-2.59-3.56-2.59-4.8,0-.78.33-1.46.99-2.02.6-.51,1.36-.76,2.29-.76,1,0,1.82.28,2.49.84.6.51.98,1.23,1.14,2.19.16.95.31,1.6.45,1.94,1,2.86,3.15,4.9,6.47,6.11,3.32,1.21,7.03,1.81,11.14,1.81,4.84,0,8.74-.93,11.69-2.78,2.95-1.85,4.43-4.32,4.43-7.41,0-1.63-.86-3.3-2.59-5.01-1.73-1.71-4.08-3.29-7.06-4.72-2.99-1.43-6.27-2.57-9.85-3.41-5.97-1.35-10.85-3.2-14.63-5.56-3.78-2.36-5.67-5.05-5.67-8.08s.91-5.7,2.74-8c1.82-2.3,4.39-4.1,7.71-5.39,3.32-1.29,7.1-1.94,11.34-1.94s7.84.63,11.39,1.89c3.55,1.26,6.12,2.88,7.71,4.84,1.66,1.8,2.49,3.4,2.49,4.8,0,.73-.3,1.32-.9,1.77-.6.51-1.33.76-2.19.76-.93,0-1.63-.25-2.09-.76-.33-.28-.56-.7-.7-1.26-.13-.56-.2-.9-.2-1.01-.13-1.12-.36-1.99-.7-2.61-1.13-2.08-3.05-3.71-5.77-4.88-2.72-1.18-5.81-1.77-9.25-1.77-4.84,0-8.77,1-11.79,2.99-3.02,1.99-4.53,4.73-4.53,8.21,0,1.74.71,3.2,2.14,4.38s3.22,2.16,5.37,2.95c2.15.78,5.32,1.77,9.5,2.95l2.49.67c6.03,1.35,11.03,3.48,14.97,6.4,3.95,2.92,5.92,6.01,5.92,9.26,0,2.86-.91,5.38-2.74,7.54-1.83,2.16-4.39,3.85-7.71,5.05-3.32,1.2-7.16,1.81-11.54,1.81-5.11,0-9.6-.59-13.48-1.77Z"/>
    <rect class="cls-3" x="84.95" y="111.47" width="53.61" height="2.42"/>
  </g>
  <path class="cls-2" d="M109.94,208.83c-54.38,0-98.63-44.24-98.63-98.63S55.55,11.57,109.94,11.57s98.63,44.24,98.63,98.63-44.24,98.63-98.63,98.63ZM109.94,15.35C57.64,15.35,15.08,57.9,15.08,110.2s42.55,94.85,94.85,94.85,94.85-42.55,94.85-94.85S162.24,15.35,109.94,15.35Z"/>
  <path class="cls-1" d="M110.07,218.14c-59.59,0-108.07-48.48-108.07-108.07S50.48,2,110.07,2s108.07,48.48,108.07,108.07-48.48,108.07-108.07,108.07ZM110.07,5.78C52.56,5.78,5.78,52.56,5.78,110.07s46.79,104.29,104.29,104.29,104.29-46.79,104.29-104.29S167.58,5.78,110.07,5.78Z"/>
</svg>